<?xml version="1.0" encoding="UTF-8" standalone="no"?>
<svg width="281.517mm" height="53.6222mm"
 xmlns="http://www.w3.org/2000/svg" xmlns:xlink="http://www.w3.org/1999/xlink"  version="1.2" baseProfile="tiny">
<title>Qt SVG Document</title>
<desc>Generated with Qt</desc>
<defs>
</defs>
<g fill="none" stroke="black" stroke-width="1" fill-rule="evenodd" stroke-linecap="square" stroke-linejoin="bevel" >

<g fill="none" stroke="#000000" stroke-opacity="1" stroke-width="1" stroke-linecap="square" stroke-linejoin="bevel" transform="matrix(1,0,0,1,0,0)"
font-family="Ubuntu Sans" font-size="11" font-weight="400" font-style="normal" 
>
</g>

<g fill="none" stroke="#000000" stroke-opacity="1" stroke-width="1" stroke-linecap="square" stroke-linejoin="bevel" transform="matrix(1,0,0,1,0,0)"
font-family="Ubuntu Sans" font-size="11" font-weight="400" font-style="normal" 
>
</g>

<g fill="none" stroke="#000000" stroke-opacity="1" stroke-width="1" stroke-linecap="square" stroke-linejoin="bevel" transform="matrix(2,0,0,2,0.0032,167)"
font-family="Ubuntu Sans" font-size="11" font-weight="400" font-style="normal" 
>
</g>

<g fill="#ffffff" fill-opacity="1" stroke="none" transform="matrix(2,0,0,2,0.0032,167)"
font-family="Ubuntu Sans" font-size="11" font-weight="400" font-style="normal" 
>
<rect x="-0.0016" y="-83.5" width="398.987" height="76"/>
</g>

<g fill="none" stroke="#000000" stroke-opacity="1" stroke-width="1" stroke-linecap="square" stroke-linejoin="bevel" transform="matrix(2,0,0,2,0.0032,167)"
font-family="Ubuntu Sans" font-size="11" font-weight="400" font-style="normal" 
>
</g>

<g fill="none" stroke="#000000" stroke-opacity="1" stroke-width="1" stroke-linecap="square" stroke-linejoin="bevel" transform="matrix(2,0,0,2,0.0032,167)"
font-family="Ubuntu Sans" font-size="11" font-weight="400" font-style="normal" 
>
</g>

<g fill="none" stroke="#000000" stroke-opacity="1" stroke-width="1" stroke-linecap="square" stroke-linejoin="bevel" transform="matrix(2,0,0,2,0.0032,167)"
font-family="Ubuntu Sans" font-size="11" font-weight="400" font-style="normal" 
>
</g>

<g fill="none" stroke="#000000" stroke-opacity="1" stroke-width="1" stroke-linecap="square" stroke-linejoin="bevel" transform="matrix(2,0,0,2,0.0032,167)"
font-family="Ubuntu Sans" font-size="11" font-weight="400" font-style="normal" 
>
</g>

<g fill="none" stroke="#000000" stroke-opacity="1" stroke-width="1" stroke-linecap="square" stroke-linejoin="round" transform="matrix(2,0,0,2,0.0032,167)"
font-family="Ubuntu Sans" font-size="11" font-weight="400" font-style="normal" 
>
<rect x="93.792" y="-83" width="148.998" height="75"/>
</g>

<g fill="none" stroke="#000000" stroke-opacity="1" stroke-width="1" stroke-linecap="square" stroke-linejoin="bevel" transform="matrix(2,0,0,2,0.0032,167)"
font-family="Ubuntu Sans" font-size="11" font-weight="400" font-style="normal" 
>
</g>

<g fill="none" stroke="#000000" stroke-opacity="1" stroke-width="1" stroke-linecap="square" stroke-linejoin="bevel" transform="matrix(2,0,0,2,297.927,8)"
font-family="Ubuntu Sans" font-size="11" font-weight="400" font-style="normal" 
>
</g>

<g fill="none" stroke="#000000" stroke-opacity="1" stroke-width="1" stroke-linecap="square" stroke-linejoin="bevel" transform="matrix(2,0,0,2,297.927,8)"
font-family="sans" font-size="11" font-weight="100" font-style="normal" 
>
</g>

<g fill="#000000" fill-opacity="1" stroke="#000000" stroke-opacity="1" stroke-width="1" stroke-linecap="square" stroke-linejoin="round" transform="matrix(2,0,0,2,297.927,8)"
font-family="sans" font-size="11" font-weight="100" font-style="normal" 
>
<path vector-effect="none" fill-rule="nonzero" d="M3.98438,4.14063 L1.0625,12 L0.109375,12 L3.03125,4.14063 L3.98438,4.14063 M6.98438,11.3125 C7.13021,11.3125 7.28125,11.2995 7.4375,11.2734 C7.59375,11.2474 7.71875,11.224 7.8125,11.2031 L7.8125,11.9375 C7.70833,11.9896 7.5599,12.0313 7.36719,12.0625 C7.17448,12.0938 6.98958,12.1094 6.8125,12.1094 C6.51042,12.1094 6.22917,12.0573 5.96875,11.9531 C5.70833,11.849 5.4974,11.6641 5.33594,11.3984 C5.17448,11.1328 5.09375,10.7604 5.09375,10.2813 L5.09375,6.84375 L4.25,6.84375 L4.25,6.39063 L5.09375,6 L5.48438,4.75 L6.0625,4.75 L6.0625,6.10938 L7.76563,6.10938 L7.76563,6.84375 L6.0625,6.84375 L6.0625,10.2656 C6.0625,10.6198 6.14844,10.8828 6.32031,11.0547 C6.49219,11.2266 6.71354,11.3125 6.98438,11.3125 M13.9063,6.10938 L13.9063,12 L13.125,12 L12.9688,11.2188 L12.9375,11.2188 C12.7396,11.5313 12.474,11.7578 12.1406,11.8984 C11.8073,12.0391 11.4479,12.1094 11.0625,12.1094 C10.3542,12.1094 9.82031,11.9401 9.46094,11.6016 C9.10156,11.263 8.92188,10.7188 8.92188,9.96875 L8.92188,6.10938 L9.89063,6.10938 L9.89063,9.90625 C9.89063,10.8438 10.3281,11.3125 11.2031,11.3125 C11.8594,11.3125 12.3125,11.1276 12.5625,10.7578 C12.8125,10.388 12.9375,9.85938 12.9375,9.17188 L12.9375,6.10938 L13.9063,6.10938 M18.5313,6 C18.6354,6 18.7526,6.00521 18.8828,6.01563 C19.013,6.02604 19.125,6.04167 19.2188,6.0625 L19.0938,6.95313 C19,6.93229 18.8984,6.91406 18.7891,6.89844 C18.6797,6.88281 18.5729,6.875 18.4688,6.875 C18.1667,6.875 17.8828,6.95833 17.6172,7.125 C17.3516,7.29167 17.1406,7.52344 16.9844,7.82031 C16.8281,8.11719 16.75,8.46354 16.75,8.85938 L16.75,12 L15.7813,12 L15.7813,6.10938 L16.5781,6.10938 L16.6875,7.1875 L16.7188,7.1875 C16.9167,6.86458 17.1641,6.58594 17.4609,6.35156 C17.7578,6.11719 18.1146,6 18.5313,6 M22.2813,11.3125 C22.4271,11.3125 22.5781,11.2995 22.7344,11.2734 C22.8906,11.2474 23.0156,11.224 23.1094,11.2031 L23.1094,11.9375 C23.0052,11.9896 22.8568,12.0313 22.6641,12.0625 C22.4714,12.0938 22.2865,12.1094 22.1094,12.1094 C21.8073,12.1094 21.526,12.0573 21.2656,11.9531 C21.0052,11.849 20.7943,11.6641 20.6328,11.3984 C20.4714,11.1328 20.3906,10.7604 20.3906,10.2813 L20.3906,6.84375 L19.5469,6.84375 L19.5469,6.39063 L20.3906,6 L20.7813,4.75 L21.3594,4.75 L21.3594,6.10938 L23.0625,6.10938 L23.0625,6.84375 L21.3594,6.84375 L21.3594,10.2656 C21.3594,10.6198 21.4453,10.8828 21.6172,11.0547 C21.7891,11.2266 22.0104,11.3125 22.2813,11.3125 M25.25,12 L24.2813,12 L24.2813,3.64063 L25.25,3.64063 L25.25,12 M29.3906,6 C29.8906,6 30.3229,6.10938 30.6875,6.32813 C31.0521,6.54688 31.3307,6.85677 31.5234,7.25781 C31.7161,7.65885 31.8125,8.125 31.8125,8.65625 L31.8125,9.23438 L27.7813,9.23438 C27.7917,9.90104 27.9609,10.4089 28.2891,10.7578 C28.6172,11.1068 29.0729,11.2813 29.6563,11.2813 C30.0313,11.2813 30.3646,11.2474 30.6563,11.1797 C30.9479,11.112 31.2448,11.0104 31.5469,10.875 L31.5469,11.7188 C31.2448,11.8542 30.9479,11.9531 30.6563,12.0156 C30.3646,12.0781 30.0156,12.1094 29.6094,12.1094 C29.0573,12.1094 28.5651,11.9948 28.1328,11.7656 C27.7005,11.5365 27.3672,11.1979 27.1328,10.75 C26.8984,10.3021 26.7813,9.75 26.7813,9.09375 C26.7813,8.44792 26.888,7.89323 27.1016,7.42969 C27.3151,6.96615 27.6198,6.61198 28.0156,6.36719 C28.4115,6.1224 28.8698,6 29.3906,6 M29.375,6.78125 C28.9167,6.78125 28.5521,6.92969 28.2813,7.22656 C28.0104,7.52344 27.849,7.9375 27.7969,8.46875 L30.7969,8.46875 C30.7969,7.96875 30.6823,7.5625 30.4531,7.25 C30.224,6.9375 29.8646,6.78125 29.375,6.78125 M36.2813,12 L35.3281,12 L35.3281,6.51563 C35.3281,6.19271 35.3333,5.9375 35.3438,5.75 C35.3542,5.5625 35.3646,5.36458 35.375,5.15625 C35.2604,5.27083 35.1563,5.36979 35.0625,5.45313 C34.9688,5.53646 34.849,5.64063 34.7031,5.76563 L33.8594,6.4375 L33.3594,5.79688 L35.4844,4.14063 L36.2813,4.14063 L36.2813,12"/>
</g>

<g fill="none" stroke="#000000" stroke-opacity="1" stroke-width="1" stroke-linecap="square" stroke-linejoin="bevel" transform="matrix(2,0,0,2,297.927,8)"
font-family="sans" font-size="11" font-weight="100" font-style="normal" 
>
</g>

<g fill="none" stroke="#000000" stroke-opacity="1" stroke-width="1" stroke-linecap="square" stroke-linejoin="bevel" transform="matrix(2,0,0,2,297.927,8)"
font-family="Ubuntu Sans" font-size="11" font-weight="400" font-style="normal" 
>
</g>

<g fill="none" stroke="#000000" stroke-opacity="1" stroke-width="1" stroke-linecap="square" stroke-linejoin="bevel" transform="matrix(2,0,0,2,0.0032,167)"
font-family="Ubuntu Sans" font-size="11" font-weight="400" font-style="normal" 
>
</g>

<g fill="none" stroke="#000000" stroke-opacity="1" stroke-width="1" stroke-linecap="square" stroke-linejoin="bevel" transform="matrix(2,0,0,2,0.0032,167)"
font-family="Ubuntu Sans" font-size="11" font-weight="400" font-style="normal" 
>
</g>

<g fill="none" stroke="#000000" stroke-opacity="1" stroke-width="1" stroke-linecap="square" stroke-linejoin="bevel" transform="matrix(2,0,0,2,0.0032,167)"
font-family="Ubuntu Sans" font-size="11" font-weight="400" font-style="normal" 
>
</g>

<g fill="none" stroke="#000000" stroke-opacity="1" stroke-width="1" stroke-linecap="square" stroke-linejoin="round" transform="matrix(2,0,0,2,0.0032,167)"
font-family="Ubuntu Sans" font-size="11" font-weight="400" font-style="normal" 
>
<rect x="102.291" y="-51.5" width="131.998" height="35"/>
</g>

<g fill="none" stroke="#000000" stroke-opacity="1" stroke-width="1" stroke-linecap="square" stroke-linejoin="bevel" transform="matrix(2,0,0,2,0.0032,167)"
font-family="Ubuntu Sans" font-size="11" font-weight="400" font-style="normal" 
>
</g>

<g fill="none" stroke="#000000" stroke-opacity="1" stroke-width="1" stroke-linecap="square" stroke-linejoin="bevel" transform="matrix(2,0,0,2,252.068,83)"
font-family="Ubuntu Sans" font-size="11" font-weight="400" font-style="normal" 
>
</g>

<g fill="none" stroke="#000000" stroke-opacity="1" stroke-width="1" stroke-linecap="square" stroke-linejoin="bevel" transform="matrix(2,0,0,2,252.068,83)"
font-family="sans" font-size="11" font-weight="100" font-style="normal" 
>
</g>

<g fill="#000000" fill-opacity="1" stroke="#000000" stroke-opacity="1" stroke-width="1" stroke-linecap="square" stroke-linejoin="round" transform="matrix(2,0,0,2,252.068,83)"
font-family="sans" font-size="11" font-weight="100" font-style="normal" 
>
<path vector-effect="none" fill-rule="nonzero" d="M3.98438,4.14063 L1.0625,12 L0.109375,12 L3.03125,4.14063 L3.98438,4.14063 M6.98438,11.3125 C7.13021,11.3125 7.28125,11.2995 7.4375,11.2734 C7.59375,11.2474 7.71875,11.224 7.8125,11.2031 L7.8125,11.9375 C7.70833,11.9896 7.5599,12.0313 7.36719,12.0625 C7.17448,12.0938 6.98958,12.1094 6.8125,12.1094 C6.51042,12.1094 6.22917,12.0573 5.96875,11.9531 C5.70833,11.849 5.4974,11.6641 5.33594,11.3984 C5.17448,11.1328 5.09375,10.7604 5.09375,10.2813 L5.09375,6.84375 L4.25,6.84375 L4.25,6.39063 L5.09375,6 L5.48438,4.75 L6.0625,4.75 L6.0625,6.10938 L7.76563,6.10938 L7.76563,6.84375 L6.0625,6.84375 L6.0625,10.2656 C6.0625,10.6198 6.14844,10.8828 6.32031,11.0547 C6.49219,11.2266 6.71354,11.3125 6.98438,11.3125 M13.9063,6.10938 L13.9063,12 L13.125,12 L12.9688,11.2188 L12.9375,11.2188 C12.7396,11.5313 12.474,11.7578 12.1406,11.8984 C11.8073,12.0391 11.4479,12.1094 11.0625,12.1094 C10.3542,12.1094 9.82031,11.9401 9.46094,11.6016 C9.10156,11.263 8.92188,10.7188 8.92188,9.96875 L8.92188,6.10938 L9.89063,6.10938 L9.89063,9.90625 C9.89063,10.8438 10.3281,11.3125 11.2031,11.3125 C11.8594,11.3125 12.3125,11.1276 12.5625,10.7578 C12.8125,10.388 12.9375,9.85938 12.9375,9.17188 L12.9375,6.10938 L13.9063,6.10938 M18.5313,6 C18.6354,6 18.7526,6.00521 18.8828,6.01563 C19.013,6.02604 19.125,6.04167 19.2188,6.0625 L19.0938,6.95313 C19,6.93229 18.8984,6.91406 18.7891,6.89844 C18.6797,6.88281 18.5729,6.875 18.4688,6.875 C18.1667,6.875 17.8828,6.95833 17.6172,7.125 C17.3516,7.29167 17.1406,7.52344 16.9844,7.82031 C16.8281,8.11719 16.75,8.46354 16.75,8.85938 L16.75,12 L15.7813,12 L15.7813,6.10938 L16.5781,6.10938 L16.6875,7.1875 L16.7188,7.1875 C16.9167,6.86458 17.1641,6.58594 17.4609,6.35156 C17.7578,6.11719 18.1146,6 18.5313,6 M22.2813,11.3125 C22.4271,11.3125 22.5781,11.2995 22.7344,11.2734 C22.8906,11.2474 23.0156,11.224 23.1094,11.2031 L23.1094,11.9375 C23.0052,11.9896 22.8568,12.0313 22.6641,12.0625 C22.4714,12.0938 22.2865,12.1094 22.1094,12.1094 C21.8073,12.1094 21.526,12.0573 21.2656,11.9531 C21.0052,11.849 20.7943,11.6641 20.6328,11.3984 C20.4714,11.1328 20.3906,10.7604 20.3906,10.2813 L20.3906,6.84375 L19.5469,6.84375 L19.5469,6.39063 L20.3906,6 L20.7813,4.75 L21.3594,4.75 L21.3594,6.10938 L23.0625,6.10938 L23.0625,6.84375 L21.3594,6.84375 L21.3594,10.2656 C21.3594,10.6198 21.4453,10.8828 21.6172,11.0547 C21.7891,11.2266 22.0104,11.3125 22.2813,11.3125 M25.25,12 L24.2813,12 L24.2813,3.64063 L25.25,3.64063 L25.25,12 M29.3906,6 C29.8906,6 30.3229,6.10938 30.6875,6.32813 C31.0521,6.54688 31.3307,6.85677 31.5234,7.25781 C31.7161,7.65885 31.8125,8.125 31.8125,8.65625 L31.8125,9.23438 L27.7813,9.23438 C27.7917,9.90104 27.9609,10.4089 28.2891,10.7578 C28.6172,11.1068 29.0729,11.2813 29.6563,11.2813 C30.0313,11.2813 30.3646,11.2474 30.6563,11.1797 C30.9479,11.112 31.2448,11.0104 31.5469,10.875 L31.5469,11.7188 C31.2448,11.8542 30.9479,11.9531 30.6563,12.0156 C30.3646,12.0781 30.0156,12.1094 29.6094,12.1094 C29.0573,12.1094 28.5651,11.9948 28.1328,11.7656 C27.7005,11.5365 27.3672,11.1979 27.1328,10.75 C26.8984,10.3021 26.7813,9.75 26.7813,9.09375 C26.7813,8.44792 26.888,7.89323 27.1016,7.42969 C27.3151,6.96615 27.6198,6.61198 28.0156,6.36719 C28.4115,6.1224 28.8698,6 29.3906,6 M29.375,6.78125 C28.9167,6.78125 28.5521,6.92969 28.2813,7.22656 C28.0104,7.52344 27.849,7.9375 27.7969,8.46875 L30.7969,8.46875 C30.7969,7.96875 30.6823,7.5625 30.4531,7.25 C30.224,6.9375 29.8646,6.78125 29.375,6.78125 M36.2813,12 L35.3281,12 L35.3281,6.51563 C35.3281,6.19271 35.3333,5.9375 35.3438,5.75 C35.3542,5.5625 35.3646,5.36458 35.375,5.15625 C35.2604,5.27083 35.1563,5.36979 35.0625,5.45313 C34.9688,5.53646 34.849,5.64063 34.7031,5.76563 L33.8594,6.4375 L33.3594,5.79688 L35.4844,4.14063 L36.2813,4.14063 L36.2813,12 M42.6406,4.14063 L39.7188,12 L38.7656,12 L41.6875,4.14063 L42.6406,4.14063 M46.0313,12.1094 C45.5104,12.1094 45.0469,12.0026 44.6406,11.7891 C44.2344,11.5755 43.9167,11.2448 43.6875,10.7969 C43.4583,10.349 43.3438,9.77604 43.3438,9.07813 C43.3438,8.35938 43.4635,7.77083 43.7031,7.3125 C43.9427,6.85417 44.2708,6.52083 44.6875,6.3125 C45.1042,6.10417 45.5729,6 46.0938,6 C46.3958,6 46.6875,6.03125 46.9688,6.09375 C47.25,6.15625 47.4792,6.22917 47.6563,6.3125 L47.3594,7.10938 C47.1823,7.04688 46.9766,6.98698 46.7422,6.92969 C46.5078,6.8724 46.2865,6.84375 46.0781,6.84375 C44.9219,6.84375 44.3438,7.58854 44.3438,9.07813 C44.3438,9.78646 44.4844,10.3307 44.7656,10.7109 C45.0469,11.0911 45.4688,11.2813 46.0313,11.2813 C46.3542,11.2813 46.638,11.2474 46.8828,11.1797 C47.1276,11.112 47.349,11.0313 47.5469,10.9375 L47.5469,11.7969 C47.349,11.8906 47.1328,11.9661 46.8984,12.0234 C46.6641,12.0807 46.375,12.1094 46.0313,12.1094 M55.4063,6 C56.0729,6 56.5703,6.16927 56.8984,6.50781 C57.2266,6.84635 57.3906,7.39583 57.3906,8.15625 L57.3906,12 L56.4375,12 L56.4375,8.20313 C56.4375,7.27604 56.0365,6.8125 55.2344,6.8125 C54.6615,6.8125 54.2526,6.97656 54.0078,7.30469 C53.763,7.63281 53.6406,8.11458 53.6406,8.75 L53.6406,12 L52.6875,12 L52.6875,8.20313 C52.6875,7.27604 52.2813,6.8125 51.4688,6.8125 C50.875,6.8125 50.4661,6.99479 50.2422,7.35938 C50.0182,7.72396 49.9063,8.25 49.9063,8.9375 L49.9063,12 L48.9375,12 L48.9375,6.10938 L49.7188,6.10938 L49.8594,6.90625 L49.9219,6.90625 C50.099,6.59375 50.3438,6.36458 50.6563,6.21875 C50.9688,6.07292 51.3021,6 51.6563,6 C52.5729,6 53.1719,6.32813 53.4531,6.98438 L53.5156,6.98438 C53.7135,6.65104 53.9818,6.40365 54.3203,6.24219 C54.6589,6.08073 55.0208,6 55.4063,6 M61.3125,12.1094 C60.5729,12.1094 59.9844,11.8542 59.5469,11.3438 C59.1094,10.8333 58.8906,10.0729 58.8906,9.0625 C58.8906,8.05208 59.112,7.28906 59.5547,6.77344 C59.9974,6.25781 60.5833,6 61.3125,6 C61.7708,6 62.1458,6.08333 62.4375,6.25 C62.7292,6.41667 62.9635,6.61979 63.1406,6.85938 L63.2031,6.85938 C63.2031,6.76563 63.1927,6.625 63.1719,6.4375 C63.151,6.25 63.1406,6.10417 63.1406,6 L63.1406,3.64063 L64.1094,3.64063 L64.1094,12 L63.3281,12 L63.1875,11.2031 L63.1406,11.2031 C62.9635,11.4531 62.7292,11.6667 62.4375,11.8438 C62.1458,12.0208 61.7708,12.1094 61.3125,12.1094 M61.4531,11.3125 C62.0781,11.3125 62.5182,11.1406 62.7734,10.7969 C63.0286,10.4531 63.1563,9.9375 63.1563,9.25 L63.1563,9.07813 C63.1563,8.33854 63.0339,7.77344 62.7891,7.38281 C62.5443,6.99219 62.099,6.79688 61.4531,6.79688 C60.9323,6.79688 60.5417,7.00521 60.2813,7.42188 C60.0208,7.83854 59.8906,8.39063 59.8906,9.07813 C59.8906,9.78646 60.0208,10.3359 60.2813,10.7266 C60.5417,11.1172 60.9323,11.3125 61.4531,11.3125 M69.9375,13.6875 L65.0156,13.6875 L65.0156,12.9844 L69.9375,12.9844 L69.9375,13.6875 M72.1406,12 L69.9063,6.10938 L70.9375,6.10938 L72.1875,9.57813 C72.25,9.74479 72.3151,9.92708 72.3828,10.125 C72.4505,10.3229 72.5104,10.5104 72.5625,10.6875 C72.6146,10.8646 72.651,11.0156 72.6719,11.1406 L72.7188,11.1406 C72.7396,11.0156 72.7786,10.862 72.8359,10.6797 C72.8932,10.4974 72.9557,10.3073 73.0234,10.1094 C73.0911,9.91146 73.151,9.73438 73.2031,9.57813 L74.4531,6.10938 L75.5,6.10938 L73.25,12 L72.1406,12 M78.7031,6 C79.2031,6 79.6354,6.10938 80,6.32813 C80.3646,6.54688 80.6432,6.85677 80.8359,7.25781 C81.0286,7.65885 81.125,8.125 81.125,8.65625 L81.125,9.23438 L77.0938,9.23438 C77.1042,9.90104 77.2734,10.4089 77.6016,10.7578 C77.9297,11.1068 78.3854,11.2813 78.9688,11.2813 C79.3438,11.2813 79.6771,11.2474 79.9688,11.1797 C80.2604,11.112 80.5573,11.0104 80.8594,10.875 L80.8594,11.7188 C80.5573,11.8542 80.2604,11.9531 79.9688,12.0156 C79.6771,12.0781 79.3281,12.1094 78.9219,12.1094 C78.3698,12.1094 77.8776,11.9948 77.4453,11.7656 C77.013,11.5365 76.6797,11.1979 76.4453,10.75 C76.2109,10.3021 76.0938,9.75 76.0938,9.09375 C76.0938,8.44792 76.2005,7.89323 76.4141,7.42969 C76.6276,6.96615 76.9323,6.61198 77.3281,6.36719 C77.724,6.1224 78.1823,6 78.7031,6 M78.6875,6.78125 C78.2292,6.78125 77.8646,6.92969 77.5938,7.22656 C77.3229,7.52344 77.1615,7.9375 77.1094,8.46875 L80.1094,8.46875 C80.1094,7.96875 79.9948,7.5625 79.7656,7.25 C79.5365,6.9375 79.1771,6.78125 78.6875,6.78125 M83.5938,12 L82.625,12 L82.625,3.64063 L83.5938,3.64063 L83.5938,12"/>
</g>

<g fill="none" stroke="#000000" stroke-opacity="1" stroke-width="1" stroke-linecap="square" stroke-linejoin="bevel" transform="matrix(2,0,0,2,252.068,83)"
font-family="sans" font-size="11" font-weight="100" font-style="normal" 
>
</g>

<g fill="none" stroke="#000000" stroke-opacity="1" stroke-width="1" stroke-linecap="square" stroke-linejoin="bevel" transform="matrix(2,0,0,2,252.068,83)"
font-family="Ubuntu Sans" font-size="11" font-weight="400" font-style="normal" 
>
</g>

<g fill="none" stroke="#000000" stroke-opacity="1" stroke-width="1" stroke-linecap="square" stroke-linejoin="bevel" transform="matrix(2,0,0,2,0.0032,167)"
font-family="Ubuntu Sans" font-size="11" font-weight="400" font-style="normal" 
>
</g>

<g fill="none" stroke="#000000" stroke-opacity="1" stroke-width="1" stroke-linecap="square" stroke-linejoin="bevel" transform="matrix(2,0,0,2,0.0032,167)"
font-family="Ubuntu Sans" font-size="11" font-weight="400" font-style="normal" 
>
</g>

<g fill="none" stroke="#000000" stroke-opacity="1" stroke-width="1" stroke-linecap="square" stroke-linejoin="bevel" transform="matrix(2,0,0,2,0.0032,167)"
font-family="Ubuntu Sans" font-size="11" font-weight="400" font-style="normal" 
>
</g>

<g fill="none" stroke="#000000" stroke-opacity="1" stroke-width="1" stroke-linecap="square" stroke-linejoin="round" transform="matrix(2,0,0,2,0.0032,167)"
font-family="Ubuntu Sans" font-size="11" font-weight="400" font-style="normal" 
>
<rect x="102.291" y="-51.5" width="131.998" height="35"/>
</g>

<g fill="none" stroke="#000000" stroke-opacity="1" stroke-width="1" stroke-linecap="square" stroke-linejoin="bevel" transform="matrix(2,0,0,2,0.0032,167)"
font-family="Ubuntu Sans" font-size="11" font-weight="400" font-style="normal" 
>
</g>

<g fill="none" stroke="#000000" stroke-opacity="1" stroke-width="1" stroke-linecap="square" stroke-linejoin="bevel" transform="matrix(2,0,0,2,252.068,83)"
font-family="Ubuntu Sans" font-size="11" font-weight="400" font-style="normal" 
>
</g>

<g fill="none" stroke="#000000" stroke-opacity="1" stroke-width="1" stroke-linecap="square" stroke-linejoin="bevel" transform="matrix(2,0,0,2,252.068,83)"
font-family="sans" font-size="11" font-weight="100" font-style="normal" 
>
</g>

<g fill="#000000" fill-opacity="1" stroke="#000000" stroke-opacity="1" stroke-width="1" stroke-linecap="square" stroke-linejoin="round" transform="matrix(2,0,0,2,252.068,83)"
font-family="sans" font-size="11" font-weight="100" font-style="normal" 
>
<path vector-effect="none" fill-rule="nonzero" d="M3.98438,4.14063 L1.0625,12 L0.109375,12 L3.03125,4.14063 L3.98438,4.14063 M6.98438,11.3125 C7.13021,11.3125 7.28125,11.2995 7.4375,11.2734 C7.59375,11.2474 7.71875,11.224 7.8125,11.2031 L7.8125,11.9375 C7.70833,11.9896 7.5599,12.0313 7.36719,12.0625 C7.17448,12.0938 6.98958,12.1094 6.8125,12.1094 C6.51042,12.1094 6.22917,12.0573 5.96875,11.9531 C5.70833,11.849 5.4974,11.6641 5.33594,11.3984 C5.17448,11.1328 5.09375,10.7604 5.09375,10.2813 L5.09375,6.84375 L4.25,6.84375 L4.25,6.39063 L5.09375,6 L5.48438,4.75 L6.0625,4.75 L6.0625,6.10938 L7.76563,6.10938 L7.76563,6.84375 L6.0625,6.84375 L6.0625,10.2656 C6.0625,10.6198 6.14844,10.8828 6.32031,11.0547 C6.49219,11.2266 6.71354,11.3125 6.98438,11.3125 M13.9063,6.10938 L13.9063,12 L13.125,12 L12.9688,11.2188 L12.9375,11.2188 C12.7396,11.5313 12.474,11.7578 12.1406,11.8984 C11.8073,12.0391 11.4479,12.1094 11.0625,12.1094 C10.3542,12.1094 9.82031,11.9401 9.46094,11.6016 C9.10156,11.263 8.92188,10.7188 8.92188,9.96875 L8.92188,6.10938 L9.89063,6.10938 L9.89063,9.90625 C9.89063,10.8438 10.3281,11.3125 11.2031,11.3125 C11.8594,11.3125 12.3125,11.1276 12.5625,10.7578 C12.8125,10.388 12.9375,9.85938 12.9375,9.17188 L12.9375,6.10938 L13.9063,6.10938 M18.5313,6 C18.6354,6 18.7526,6.00521 18.8828,6.01563 C19.013,6.02604 19.125,6.04167 19.2188,6.0625 L19.0938,6.95313 C19,6.93229 18.8984,6.91406 18.7891,6.89844 C18.6797,6.88281 18.5729,6.875 18.4688,6.875 C18.1667,6.875 17.8828,6.95833 17.6172,7.125 C17.3516,7.29167 17.1406,7.52344 16.9844,7.82031 C16.8281,8.11719 16.75,8.46354 16.75,8.85938 L16.75,12 L15.7813,12 L15.7813,6.10938 L16.5781,6.10938 L16.6875,7.1875 L16.7188,7.1875 C16.9167,6.86458 17.1641,6.58594 17.4609,6.35156 C17.7578,6.11719 18.1146,6 18.5313,6 M22.2813,11.3125 C22.4271,11.3125 22.5781,11.2995 22.7344,11.2734 C22.8906,11.2474 23.0156,11.224 23.1094,11.2031 L23.1094,11.9375 C23.0052,11.9896 22.8568,12.0313 22.6641,12.0625 C22.4714,12.0938 22.2865,12.1094 22.1094,12.1094 C21.8073,12.1094 21.526,12.0573 21.2656,11.9531 C21.0052,11.849 20.7943,11.6641 20.6328,11.3984 C20.4714,11.1328 20.3906,10.7604 20.3906,10.2813 L20.3906,6.84375 L19.5469,6.84375 L19.5469,6.39063 L20.3906,6 L20.7813,4.75 L21.3594,4.75 L21.3594,6.10938 L23.0625,6.10938 L23.0625,6.84375 L21.3594,6.84375 L21.3594,10.2656 C21.3594,10.6198 21.4453,10.8828 21.6172,11.0547 C21.7891,11.2266 22.0104,11.3125 22.2813,11.3125 M25.25,12 L24.2813,12 L24.2813,3.64063 L25.25,3.64063 L25.25,12 M29.3906,6 C29.8906,6 30.3229,6.10938 30.6875,6.32813 C31.0521,6.54688 31.3307,6.85677 31.5234,7.25781 C31.7161,7.65885 31.8125,8.125 31.8125,8.65625 L31.8125,9.23438 L27.7813,9.23438 C27.7917,9.90104 27.9609,10.4089 28.2891,10.7578 C28.6172,11.1068 29.0729,11.2813 29.6563,11.2813 C30.0313,11.2813 30.3646,11.2474 30.6563,11.1797 C30.9479,11.112 31.2448,11.0104 31.5469,10.875 L31.5469,11.7188 C31.2448,11.8542 30.9479,11.9531 30.6563,12.0156 C30.3646,12.0781 30.0156,12.1094 29.6094,12.1094 C29.0573,12.1094 28.5651,11.9948 28.1328,11.7656 C27.7005,11.5365 27.3672,11.1979 27.1328,10.75 C26.8984,10.3021 26.7813,9.75 26.7813,9.09375 C26.7813,8.44792 26.888,7.89323 27.1016,7.42969 C27.3151,6.96615 27.6198,6.61198 28.0156,6.36719 C28.4115,6.1224 28.8698,6 29.3906,6 M29.375,6.78125 C28.9167,6.78125 28.5521,6.92969 28.2813,7.22656 C28.0104,7.52344 27.849,7.9375 27.7969,8.46875 L30.7969,8.46875 C30.7969,7.96875 30.6823,7.5625 30.4531,7.25 C30.224,6.9375 29.8646,6.78125 29.375,6.78125 M36.2813,12 L35.3281,12 L35.3281,6.51563 C35.3281,6.19271 35.3333,5.9375 35.3438,5.75 C35.3542,5.5625 35.3646,5.36458 35.375,5.15625 C35.2604,5.27083 35.1563,5.36979 35.0625,5.45313 C34.9688,5.53646 34.849,5.64063 34.7031,5.76563 L33.8594,6.4375 L33.3594,5.79688 L35.4844,4.14063 L36.2813,4.14063 L36.2813,12 M42.6406,4.14063 L39.7188,12 L38.7656,12 L41.6875,4.14063 L42.6406,4.14063 M46.0313,12.1094 C45.5104,12.1094 45.0469,12.0026 44.6406,11.7891 C44.2344,11.5755 43.9167,11.2448 43.6875,10.7969 C43.4583,10.349 43.3438,9.77604 43.3438,9.07813 C43.3438,8.35938 43.4635,7.77083 43.7031,7.3125 C43.9427,6.85417 44.2708,6.52083 44.6875,6.3125 C45.1042,6.10417 45.5729,6 46.0938,6 C46.3958,6 46.6875,6.03125 46.9688,6.09375 C47.25,6.15625 47.4792,6.22917 47.6563,6.3125 L47.3594,7.10938 C47.1823,7.04688 46.9766,6.98698 46.7422,6.92969 C46.5078,6.8724 46.2865,6.84375 46.0781,6.84375 C44.9219,6.84375 44.3438,7.58854 44.3438,9.07813 C44.3438,9.78646 44.4844,10.3307 44.7656,10.7109 C45.0469,11.0911 45.4688,11.2813 46.0313,11.2813 C46.3542,11.2813 46.638,11.2474 46.8828,11.1797 C47.1276,11.112 47.349,11.0313 47.5469,10.9375 L47.5469,11.7969 C47.349,11.8906 47.1328,11.9661 46.8984,12.0234 C46.6641,12.0807 46.375,12.1094 46.0313,12.1094 M55.4063,6 C56.0729,6 56.5703,6.16927 56.8984,6.50781 C57.2266,6.84635 57.3906,7.39583 57.3906,8.15625 L57.3906,12 L56.4375,12 L56.4375,8.20313 C56.4375,7.27604 56.0365,6.8125 55.2344,6.8125 C54.6615,6.8125 54.2526,6.97656 54.0078,7.30469 C53.763,7.63281 53.6406,8.11458 53.6406,8.75 L53.6406,12 L52.6875,12 L52.6875,8.20313 C52.6875,7.27604 52.2813,6.8125 51.4688,6.8125 C50.875,6.8125 50.4661,6.99479 50.2422,7.35938 C50.0182,7.72396 49.9063,8.25 49.9063,8.9375 L49.9063,12 L48.9375,12 L48.9375,6.10938 L49.7188,6.10938 L49.8594,6.90625 L49.9219,6.90625 C50.099,6.59375 50.3438,6.36458 50.6563,6.21875 C50.9688,6.07292 51.3021,6 51.6563,6 C52.5729,6 53.1719,6.32813 53.4531,6.98438 L53.5156,6.98438 C53.7135,6.65104 53.9818,6.40365 54.3203,6.24219 C54.6589,6.08073 55.0208,6 55.4063,6 M61.3125,12.1094 C60.5729,12.1094 59.9844,11.8542 59.5469,11.3438 C59.1094,10.8333 58.8906,10.0729 58.8906,9.0625 C58.8906,8.05208 59.112,7.28906 59.5547,6.77344 C59.9974,6.25781 60.5833,6 61.3125,6 C61.7708,6 62.1458,6.08333 62.4375,6.25 C62.7292,6.41667 62.9635,6.61979 63.1406,6.85938 L63.2031,6.85938 C63.2031,6.76563 63.1927,6.625 63.1719,6.4375 C63.151,6.25 63.1406,6.10417 63.1406,6 L63.1406,3.64063 L64.1094,3.64063 L64.1094,12 L63.3281,12 L63.1875,11.2031 L63.1406,11.2031 C62.9635,11.4531 62.7292,11.6667 62.4375,11.8438 C62.1458,12.0208 61.7708,12.1094 61.3125,12.1094 M61.4531,11.3125 C62.0781,11.3125 62.5182,11.1406 62.7734,10.7969 C63.0286,10.4531 63.1563,9.9375 63.1563,9.25 L63.1563,9.07813 C63.1563,8.33854 63.0339,7.77344 62.7891,7.38281 C62.5443,6.99219 62.099,6.79688 61.4531,6.79688 C60.9323,6.79688 60.5417,7.00521 60.2813,7.42188 C60.0208,7.83854 59.8906,8.39063 59.8906,9.07813 C59.8906,9.78646 60.0208,10.3359 60.2813,10.7266 C60.5417,11.1172 60.9323,11.3125 61.4531,11.3125 M69.9375,13.6875 L65.0156,13.6875 L65.0156,12.9844 L69.9375,12.9844 L69.9375,13.6875 M72.1406,12 L69.9063,6.10938 L70.9375,6.10938 L72.1875,9.57813 C72.25,9.74479 72.3151,9.92708 72.3828,10.125 C72.4505,10.3229 72.5104,10.5104 72.5625,10.6875 C72.6146,10.8646 72.651,11.0156 72.6719,11.1406 L72.7188,11.1406 C72.7396,11.0156 72.7786,10.862 72.8359,10.6797 C72.8932,10.4974 72.9557,10.3073 73.0234,10.1094 C73.0911,9.91146 73.151,9.73438 73.2031,9.57813 L74.4531,6.10938 L75.5,6.10938 L73.25,12 L72.1406,12 M78.7031,6 C79.2031,6 79.6354,6.10938 80,6.32813 C80.3646,6.54688 80.6432,6.85677 80.8359,7.25781 C81.0286,7.65885 81.125,8.125 81.125,8.65625 L81.125,9.23438 L77.0938,9.23438 C77.1042,9.90104 77.2734,10.4089 77.6016,10.7578 C77.9297,11.1068 78.3854,11.2813 78.9688,11.2813 C79.3438,11.2813 79.6771,11.2474 79.9688,11.1797 C80.2604,11.112 80.5573,11.0104 80.8594,10.875 L80.8594,11.7188 C80.5573,11.8542 80.2604,11.9531 79.9688,12.0156 C79.6771,12.0781 79.3281,12.1094 78.9219,12.1094 C78.3698,12.1094 77.8776,11.9948 77.4453,11.7656 C77.013,11.5365 76.6797,11.1979 76.4453,10.75 C76.2109,10.3021 76.0938,9.75 76.0938,9.09375 C76.0938,8.44792 76.2005,7.89323 76.4141,7.42969 C76.6276,6.96615 76.9323,6.61198 77.3281,6.36719 C77.724,6.1224 78.1823,6 78.7031,6 M78.6875,6.78125 C78.2292,6.78125 77.8646,6.92969 77.5938,7.22656 C77.3229,7.52344 77.1615,7.9375 77.1094,8.46875 L80.1094,8.46875 C80.1094,7.96875 79.9948,7.5625 79.7656,7.25 C79.5365,6.9375 79.1771,6.78125 78.6875,6.78125 M83.5938,12 L82.625,12 L82.625,3.64063 L83.5938,3.64063 L83.5938,12"/>
</g>

<g fill="none" stroke="#000000" stroke-opacity="1" stroke-width="1" stroke-linecap="square" stroke-linejoin="bevel" transform="matrix(2,0,0,2,252.068,83)"
font-family="sans" font-size="11" font-weight="100" font-style="normal" 
>
</g>

<g fill="none" stroke="#000000" stroke-opacity="1" stroke-width="1" stroke-linecap="square" stroke-linejoin="bevel" transform="matrix(2,0,0,2,252.068,83)"
font-family="Ubuntu Sans" font-size="11" font-weight="400" font-style="normal" 
>
</g>

<g fill="none" stroke="#000000" stroke-opacity="1" stroke-width="1" stroke-linecap="square" stroke-linejoin="bevel" transform="matrix(2,0,0,2,0.0032,167)"
font-family="Ubuntu Sans" font-size="11" font-weight="400" font-style="normal" 
>
</g>

<g fill="none" stroke="#000000" stroke-opacity="1" stroke-width="1" stroke-linecap="square" stroke-linejoin="bevel" transform="matrix(2,0,0,2,0.0032,167)"
font-family="Ubuntu Sans" font-size="11" font-weight="400" font-style="normal" 
>
</g>

<g fill="none" stroke="#000000" stroke-opacity="1" stroke-width="1" stroke-linecap="square" stroke-linejoin="bevel" transform="matrix(2,0,0,2,0.0032,167)"
font-family="Ubuntu Sans" font-size="11" font-weight="400" font-style="normal" 
>
</g>

<g fill="none" stroke="#000000" stroke-opacity="1" stroke-width="1" stroke-linecap="square" stroke-linejoin="round" transform="matrix(2,0,0,2,0.0032,167)"
font-family="Ubuntu Sans" font-size="11" font-weight="400" font-style="normal" 
>
<ellipse cx="324.89" cy="-34" rx="73.5952" ry="17.5"/>
</g>

<g fill="none" stroke="#000000" stroke-opacity="1" stroke-width="1" stroke-linecap="square" stroke-linejoin="bevel" transform="matrix(2,0,0,2,0.0032,167)"
font-family="Ubuntu Sans" font-size="11" font-weight="400" font-style="normal" 
>
</g>

<g fill="none" stroke="#000000" stroke-opacity="1" stroke-width="1" stroke-linecap="square" stroke-linejoin="bevel" transform="matrix(2,0,0,2,579.846,83)"
font-family="Ubuntu Sans" font-size="11" font-weight="400" font-style="normal" 
>
</g>

<g fill="none" stroke="#000000" stroke-opacity="1" stroke-width="1" stroke-linecap="square" stroke-linejoin="bevel" transform="matrix(2,0,0,2,579.846,83)"
font-family="sans" font-size="11" font-weight="100" font-style="normal" 
>
</g>

<g fill="#000000" fill-opacity="1" stroke="#000000" stroke-opacity="1" stroke-width="1" stroke-linecap="square" stroke-linejoin="round" transform="matrix(2,0,0,2,579.846,83)"
font-family="sans" font-size="11" font-weight="100" font-style="normal" 
>
<path vector-effect="none" fill-rule="nonzero" d="M3.98438,4.14063 L1.0625,12 L0.109375,12 L3.03125,4.14063 L3.98438,4.14063 M7.76563,6 C7.86979,6 7.98698,6.00521 8.11719,6.01563 C8.2474,6.02604 8.35938,6.04167 8.45313,6.0625 L8.32813,6.95313 C8.23438,6.93229 8.13281,6.91406 8.02344,6.89844 C7.91406,6.88281 7.80729,6.875 7.70313,6.875 C7.40104,6.875 7.11719,6.95833 6.85156,7.125 C6.58594,7.29167 6.375,7.52344 6.21875,7.82031 C6.0625,8.11719 5.98438,8.46354 5.98438,8.85938 L5.98438,12 L5.01563,12 L5.01563,6.10938 L5.8125,6.10938 L5.92188,7.1875 L5.95313,7.1875 C6.15104,6.86458 6.39844,6.58594 6.69531,6.35156 C6.99219,6.11719 7.34896,6 7.76563,6 M14.4531,9.04688 C14.4531,10.0156 14.2057,10.7682 13.7109,11.3047 C13.2161,11.8411 12.5469,12.1094 11.7031,12.1094 C11.1823,12.1094 10.7188,11.9896 10.3125,11.75 C9.90625,11.5104 9.58594,11.1615 9.35156,10.7031 C9.11719,10.2448 9,9.69271 9,9.04688 C9,8.06771 9.24479,7.3151 9.73438,6.78906 C10.224,6.26302 10.8906,6 11.7344,6 C12.2656,6 12.737,6.11719 13.1484,6.35156 C13.5599,6.58594 13.8802,6.92969 14.1094,7.38281 C14.3385,7.83594 14.4531,8.39063 14.4531,9.04688 M10,9.04688 C10,9.73438 10.138,10.2839 10.4141,10.6953 C10.6901,11.1068 11.125,11.3125 11.7188,11.3125 C12.3125,11.3125 12.75,11.1068 13.0313,10.6953 C13.3125,10.2839 13.4531,9.73438 13.4531,9.04688 C13.4531,8.34896 13.3125,7.80208 13.0313,7.40625 C12.75,7.01042 12.3125,6.8125 11.7188,6.8125 C11.1146,6.8125 10.6771,7.01042 10.4063,7.40625 C10.1354,7.80208 10,8.34896 10,9.04688 M17.0469,12 L14.8125,6.10938 L15.8438,6.10938 L17.0938,9.57813 C17.1563,9.74479 17.2214,9.92708 17.2891,10.125 C17.3568,10.3229 17.4167,10.5104 17.4688,10.6875 C17.5208,10.8646 17.5573,11.0156 17.5781,11.1406 L17.625,11.1406 C17.6458,11.0156 17.6849,10.862 17.7422,10.6797 C17.7995,10.4974 17.862,10.3073 17.9297,10.1094 C17.9974,9.91146 18.0573,9.73438 18.1094,9.57813 L19.3594,6.10938 L20.4063,6.10938 L18.1563,12 L17.0469,12 M21.8281,3.89063 C21.974,3.89063 22.1016,3.9401 22.2109,4.03906 C22.3203,4.13802 22.375,4.29688 22.375,4.51563 C22.375,4.71354 22.3203,4.86458 22.2109,4.96875 C22.1016,5.07292 21.974,5.125 21.8281,5.125 C21.6615,5.125 21.5234,5.07292 21.4141,4.96875 C21.3047,4.86458 21.25,4.71354 21.25,4.51563 C21.25,4.29688 21.3047,4.13802 21.4141,4.03906 C21.5234,3.9401 21.6615,3.89063 21.8281,3.89063 M22.2969,6.10938 L22.2969,12 L21.3281,12 L21.3281,6.10938 L22.2969,6.10938 M27,6 C27.6979,6 28.2266,6.16927 28.5859,6.50781 C28.9453,6.84635 29.125,7.39583 29.125,8.15625 L29.125,12 L28.1719,12 L28.1719,8.21875 C28.1719,7.28125 27.7292,6.8125 26.8438,6.8125 C26.1979,6.8125 25.75,6.99479 25.5,7.35938 C25.25,7.72396 25.125,8.25 25.125,8.9375 L25.125,12 L24.1563,12 L24.1563,6.10938 L24.9375,6.10938 L25.0781,6.90625 L25.1406,6.90625 C25.3281,6.59375 25.5911,6.36458 25.9297,6.21875 C26.2682,6.07292 26.625,6 27,6 M33.0469,6 C33.4323,6 33.7813,6.07292 34.0938,6.21875 C34.4063,6.36458 34.6719,6.58854 34.8906,6.89063 L34.9375,6.89063 L35.0781,6.10938 L35.8438,6.10938 L35.8438,12.0938 C35.8438,12.9375 35.6302,13.5729 35.2031,14 C34.776,14.4271 34.1094,14.6406 33.2031,14.6406 C32.3385,14.6406 31.6302,14.5156 31.0781,14.2656 L31.0781,13.375 C31.6615,13.6875 32.3906,13.8438 33.2656,13.8438 C33.7656,13.8438 34.1615,13.6953 34.4531,13.3984 C34.7448,13.1016 34.8906,12.6927 34.8906,12.1719 L34.8906,11.9375 C34.8906,11.8542 34.8932,11.7292 34.8984,11.5625 C34.9036,11.3958 34.9115,11.2813 34.9219,11.2188 L34.875,11.2188 C34.4792,11.8125 33.8698,12.1094 33.0469,12.1094 C32.2865,12.1094 31.6927,11.8411 31.2656,11.3047 C30.8385,10.7682 30.625,10.0208 30.625,9.0625 C30.625,8.125 30.8385,7.38021 31.2656,6.82813 C31.6927,6.27604 32.2865,6 33.0469,6 M33.1719,6.8125 C32.6823,6.8125 32.3021,7.00781 32.0313,7.39844 C31.7604,7.78906 31.625,8.34896 31.625,9.07813 C31.625,9.79688 31.7578,10.349 32.0234,10.7344 C32.2891,11.1198 32.6771,11.3125 33.1875,11.3125 C33.7917,11.3125 34.2292,11.1536 34.5,10.8359 C34.7708,10.5182 34.9063,10.0052 34.9063,9.29688 L34.9063,9.0625 C34.9063,8.26042 34.7656,7.6849 34.4844,7.33594 C34.2031,6.98698 33.7656,6.8125 33.1719,6.8125 M41.6719,13.6875 L36.75,13.6875 L36.75,12.9844 L41.6719,12.9844 L41.6719,13.6875 M44.5469,11.3125 C44.6927,11.3125 44.8438,11.2995 45,11.2734 C45.1563,11.2474 45.2813,11.224 45.375,11.2031 L45.375,11.9375 C45.2708,11.9896 45.1224,12.0313 44.9297,12.0625 C44.737,12.0938 44.5521,12.1094 44.375,12.1094 C44.0729,12.1094 43.7917,12.0573 43.5313,11.9531 C43.2708,11.849 43.0599,11.6641 42.8984,11.3984 C42.737,11.1328 42.6563,10.7604 42.6563,10.2813 L42.6563,6.84375 L41.8125,6.84375 L41.8125,6.39063 L42.6563,6 L43.0469,4.75 L43.625,4.75 L43.625,6.10938 L45.3281,6.10938 L45.3281,6.84375 L43.625,6.84375 L43.625,10.2656 C43.625,10.6198 43.7109,10.8828 43.8828,11.0547 C44.0547,11.2266 44.276,11.3125 44.5469,11.3125 M51.4688,6.10938 L51.4688,12 L50.6875,12 L50.5313,11.2188 L50.5,11.2188 C50.3021,11.5313 50.0365,11.7578 49.7031,11.8984 C49.3698,12.0391 49.0104,12.1094 48.625,12.1094 C47.9167,12.1094 47.3828,11.9401 47.0234,11.6016 C46.6641,11.263 46.4844,10.7188 46.4844,9.96875 L46.4844,6.10938 L47.4531,6.10938 L47.4531,9.90625 C47.4531,10.8438 47.8906,11.3125 48.7656,11.3125 C49.4219,11.3125 49.875,11.1276 50.125,10.7578 C50.375,10.388 50.5,9.85938 50.5,9.17188 L50.5,6.10938 L51.4688,6.10938 M56.0938,6 C56.1979,6 56.3151,6.00521 56.4453,6.01563 C56.5755,6.02604 56.6875,6.04167 56.7813,6.0625 L56.6563,6.95313 C56.5625,6.93229 56.4609,6.91406 56.3516,6.89844 C56.2422,6.88281 56.1354,6.875 56.0313,6.875 C55.7292,6.875 55.4453,6.95833 55.1797,7.125 C54.9141,7.29167 54.7031,7.52344 54.5469,7.82031 C54.3906,8.11719 54.3125,8.46354 54.3125,8.85938 L54.3125,12 L53.3438,12 L53.3438,6.10938 L54.1406,6.10938 L54.25,7.1875 L54.2813,7.1875 C54.4792,6.86458 54.7266,6.58594 55.0234,6.35156 C55.3203,6.11719 55.6771,6 56.0938,6 M59.8438,11.3125 C59.9896,11.3125 60.1406,11.2995 60.2969,11.2734 C60.4531,11.2474 60.5781,11.224 60.6719,11.2031 L60.6719,11.9375 C60.5677,11.9896 60.4193,12.0313 60.2266,12.0625 C60.0339,12.0938 59.849,12.1094 59.6719,12.1094 C59.3698,12.1094 59.0885,12.0573 58.8281,11.9531 C58.5677,11.849 58.3568,11.6641 58.1953,11.3984 C58.0339,11.1328 57.9531,10.7604 57.9531,10.2813 L57.9531,6.84375 L57.1094,6.84375 L57.1094,6.39063 L57.9531,6 L58.3438,4.75 L58.9219,4.75 L58.9219,6.10938 L60.625,6.10938 L60.625,6.84375 L58.9219,6.84375 L58.9219,10.2656 C58.9219,10.6198 59.0078,10.8828 59.1797,11.0547 C59.3516,11.2266 59.5729,11.3125 59.8438,11.3125 M62.8125,12 L61.8438,12 L61.8438,3.64063 L62.8125,3.64063 L62.8125,12 M66.9531,6 C67.4531,6 67.8854,6.10938 68.25,6.32813 C68.6146,6.54688 68.8932,6.85677 69.0859,7.25781 C69.2786,7.65885 69.375,8.125 69.375,8.65625 L69.375,9.23438 L65.3438,9.23438 C65.3542,9.90104 65.5234,10.4089 65.8516,10.7578 C66.1797,11.1068 66.6354,11.2813 67.2188,11.2813 C67.5938,11.2813 67.9271,11.2474 68.2188,11.1797 C68.5104,11.112 68.8073,11.0104 69.1094,10.875 L69.1094,11.7188 C68.8073,11.8542 68.5104,11.9531 68.2188,12.0156 C67.9271,12.0781 67.5781,12.1094 67.1719,12.1094 C66.6198,12.1094 66.1276,11.9948 65.6953,11.7656 C65.263,11.5365 64.9297,11.1979 64.6953,10.75 C64.4609,10.3021 64.3438,9.75 64.3438,9.09375 C64.3438,8.44792 64.4505,7.89323 64.6641,7.42969 C64.8776,6.96615 65.1823,6.61198 65.5781,6.36719 C65.974,6.1224 66.4323,6 66.9531,6 M66.9375,6.78125 C66.4792,6.78125 66.1146,6.92969 65.8438,7.22656 C65.5729,7.52344 65.4115,7.9375 65.3594,8.46875 L68.3594,8.46875 C68.3594,7.96875 68.2448,7.5625 68.0156,7.25 C67.7865,6.9375 67.4271,6.78125 66.9375,6.78125 "/>
</g>

<g fill="none" stroke="#000000" stroke-opacity="1" stroke-width="1" stroke-linecap="square" stroke-linejoin="bevel" transform="matrix(2,0,0,2,579.846,83)"
font-family="sans" font-size="11" font-weight="100" font-style="normal" 
>
</g>

<g fill="none" stroke="#000000" stroke-opacity="1" stroke-width="1" stroke-linecap="square" stroke-linejoin="bevel" transform="matrix(2,0,0,2,579.846,83)"
font-family="Ubuntu Sans" font-size="11" font-weight="400" font-style="normal" 
>
</g>

<g fill="none" stroke="#000000" stroke-opacity="1" stroke-width="1" stroke-linecap="square" stroke-linejoin="bevel" transform="matrix(2,0,0,2,0.0032,167)"
font-family="Ubuntu Sans" font-size="11" font-weight="400" font-style="normal" 
>
</g>

<g fill="none" stroke="#000000" stroke-opacity="1" stroke-width="1" stroke-linecap="square" stroke-linejoin="bevel" transform="matrix(2,0,0,2,0.0032,167)"
font-family="Ubuntu Sans" font-size="11" font-weight="400" font-style="normal" 
>
</g>

<g fill="none" stroke="#000000" stroke-opacity="1" stroke-width="1" stroke-linecap="square" stroke-linejoin="bevel" transform="matrix(2,0,0,2,0.0032,167)"
font-family="Ubuntu Sans" font-size="11" font-weight="400" font-style="normal" 
>
</g>

<g fill="none" stroke="#000000" stroke-opacity="1" stroke-width="1" stroke-linecap="square" stroke-linejoin="round" transform="matrix(2,0,0,2,0.0032,167)"
font-family="Ubuntu Sans" font-size="11" font-weight="400" font-style="normal" 
>
<ellipse cx="42.896" cy="-34" rx="42.3976" ry="17.5"/>
</g>

<g fill="none" stroke="#000000" stroke-opacity="1" stroke-width="1" stroke-linecap="square" stroke-linejoin="bevel" transform="matrix(2,0,0,2,0.0032,167)"
font-family="Ubuntu Sans" font-size="11" font-weight="400" font-style="normal" 
>
</g>

<g fill="none" stroke="#000000" stroke-opacity="1" stroke-width="1" stroke-linecap="square" stroke-linejoin="bevel" transform="matrix(2,0,0,2,48.7014,83)"
font-family="Ubuntu Sans" font-size="11" font-weight="400" font-style="normal" 
>
</g>

<g fill="none" stroke="#000000" stroke-opacity="1" stroke-width="1" stroke-linecap="square" stroke-linejoin="bevel" transform="matrix(2,0,0,2,48.7014,83)"
font-family="sans" font-size="11" font-weight="100" font-style="normal" 
>
</g>

<g fill="#000000" fill-opacity="1" stroke="#000000" stroke-opacity="1" stroke-width="1" stroke-linecap="square" stroke-linejoin="round" transform="matrix(2,0,0,2,48.7014,83)"
font-family="sans" font-size="11" font-weight="100" font-style="normal" 
>
<path vector-effect="none" fill-rule="nonzero" d="M3.98438,4.14063 L1.0625,12 L0.109375,12 L3.03125,4.14063 L3.98438,4.14063 M11.4844,6 C12.151,6 12.6484,6.16927 12.9766,6.50781 C13.3047,6.84635 13.4688,7.39583 13.4688,8.15625 L13.4688,12 L12.5156,12 L12.5156,8.20313 C12.5156,7.27604 12.1146,6.8125 11.3125,6.8125 C10.7396,6.8125 10.3307,6.97656 10.0859,7.30469 C9.84115,7.63281 9.71875,8.11458 9.71875,8.75 L9.71875,12 L8.76563,12 L8.76563,8.20313 C8.76563,7.27604 8.35938,6.8125 7.54688,6.8125 C6.95313,6.8125 6.54427,6.99479 6.32031,7.35938 C6.09635,7.72396 5.98438,8.25 5.98438,8.9375 L5.98438,12 L5.01563,12 L5.01563,6.10938 L5.79688,6.10938 L5.9375,6.90625 L6,6.90625 C6.17708,6.59375 6.42188,6.36458 6.73438,6.21875 C7.04688,6.07292 7.38021,6 7.73438,6 C8.65104,6 9.25,6.32813 9.53125,6.98438 L9.59375,6.98438 C9.79167,6.65104 10.0599,6.40365 10.3984,6.24219 C10.737,6.08073 11.099,6 11.4844,6 M20.4219,9.04688 C20.4219,10.0156 20.1745,10.7682 19.6797,11.3047 C19.1849,11.8411 18.5156,12.1094 17.6719,12.1094 C17.151,12.1094 16.6875,11.9896 16.2813,11.75 C15.875,11.5104 15.5547,11.1615 15.3203,10.7031 C15.0859,10.2448 14.9688,9.69271 14.9688,9.04688 C14.9688,8.06771 15.2135,7.3151 15.7031,6.78906 C16.1927,6.26302 16.8594,6 17.7031,6 C18.2344,6 18.7057,6.11719 19.1172,6.35156 C19.5286,6.58594 19.849,6.92969 20.0781,7.38281 C20.3073,7.83594 20.4219,8.39063 20.4219,9.04688 M15.9688,9.04688 C15.9688,9.73438 16.1068,10.2839 16.3828,10.6953 C16.6589,11.1068 17.0938,11.3125 17.6875,11.3125 C18.2813,11.3125 18.7188,11.1068 19,10.6953 C19.2813,10.2839 19.4219,9.73438 19.4219,9.04688 C19.4219,8.34896 19.2813,7.80208 19,7.40625 C18.7188,7.01042 18.2813,6.8125 17.6875,6.8125 C17.0833,6.8125 16.6458,7.01042 16.375,7.40625 C16.1042,7.80208 15.9688,8.34896 15.9688,9.04688 M23.0156,12 L20.7813,6.10938 L21.8125,6.10938 L23.0625,9.57813 C23.125,9.74479 23.1901,9.92708 23.2578,10.125 C23.3255,10.3229 23.3854,10.5104 23.4375,10.6875 C23.4896,10.8646 23.526,11.0156 23.5469,11.1406 L23.5938,11.1406 C23.6146,11.0156 23.6536,10.862 23.7109,10.6797 C23.7682,10.4974 23.8307,10.3073 23.8984,10.1094 C23.9661,9.91146 24.026,9.73438 24.0781,9.57813 L25.3281,6.10938 L26.375,6.10938 L24.125,12 L23.0156,12 M29.5781,6 C30.0781,6 30.5104,6.10938 30.875,6.32813 C31.2396,6.54688 31.5182,6.85677 31.7109,7.25781 C31.9036,7.65885 32,8.125 32,8.65625 L32,9.23438 L27.9688,9.23438 C27.9792,9.90104 28.1484,10.4089 28.4766,10.7578 C28.8047,11.1068 29.2604,11.2813 29.8438,11.2813 C30.2188,11.2813 30.5521,11.2474 30.8438,11.1797 C31.1354,11.112 31.4323,11.0104 31.7344,10.875 L31.7344,11.7188 C31.4323,11.8542 31.1354,11.9531 30.8438,12.0156 C30.5521,12.0781 30.2031,12.1094 29.7969,12.1094 C29.2448,12.1094 28.7526,11.9948 28.3203,11.7656 C27.888,11.5365 27.5547,11.1979 27.3203,10.75 C27.0859,10.3021 26.9688,9.75 26.9688,9.09375 C26.9688,8.44792 27.0755,7.89323 27.2891,7.42969 C27.5026,6.96615 27.8073,6.61198 28.2031,6.36719 C28.599,6.1224 29.0573,6 29.5781,6 M29.5625,6.78125 C29.1042,6.78125 28.7396,6.92969 28.4688,7.22656 C28.1979,7.52344 28.0365,7.9375 27.9844,8.46875 L30.9844,8.46875 C30.9844,7.96875 30.8698,7.5625 30.6406,7.25 C30.4115,6.9375 30.0521,6.78125 29.5625,6.78125 M36.25,6 C36.3542,6 36.4714,6.00521 36.6016,6.01563 C36.7318,6.02604 36.8438,6.04167 36.9375,6.0625 L36.8125,6.95313 C36.7188,6.93229 36.6172,6.91406 36.5078,6.89844 C36.3984,6.88281 36.2917,6.875 36.1875,6.875 C35.8854,6.875 35.6016,6.95833 35.3359,7.125 C35.0703,7.29167 34.8594,7.52344 34.7031,7.82031 C34.5469,8.11719 34.4688,8.46354 34.4688,8.85938 L34.4688,12 L33.5,12 L33.5,6.10938 L34.2969,6.10938 L34.4063,7.1875 L34.4375,7.1875 C34.6354,6.86458 34.8828,6.58594 35.1797,6.35156 C35.4766,6.11719 35.8333,6 36.25,6 "/>
</g>

<g fill="none" stroke="#000000" stroke-opacity="1" stroke-width="1" stroke-linecap="square" stroke-linejoin="bevel" transform="matrix(2,0,0,2,48.7014,83)"
font-family="sans" font-size="11" font-weight="100" font-style="normal" 
>
</g>

<g fill="none" stroke="#000000" stroke-opacity="1" stroke-width="1" stroke-linecap="square" stroke-linejoin="bevel" transform="matrix(2,0,0,2,48.7014,83)"
font-family="Ubuntu Sans" font-size="11" font-weight="400" font-style="normal" 
>
</g>

<g fill="none" stroke="#000000" stroke-opacity="1" stroke-width="1" stroke-linecap="square" stroke-linejoin="bevel" transform="matrix(2,0,0,2,0.0032,167)"
font-family="Ubuntu Sans" font-size="11" font-weight="400" font-style="normal" 
>
</g>

<g fill="none" stroke="#000000" stroke-opacity="1" stroke-width="1" stroke-linecap="square" stroke-linejoin="bevel" transform="matrix(2,0,0,2,0.0032,167)"
font-family="Ubuntu Sans" font-size="11" font-weight="400" font-style="normal" 
>
</g>

<g fill="none" stroke="#000000" stroke-opacity="1" stroke-width="1" stroke-linecap="square" stroke-linejoin="bevel" transform="matrix(2,0,0,2,0.0032,167)"
font-family="Ubuntu Sans" font-size="11" font-weight="400" font-style="normal" 
>
</g>

<g fill="none" stroke="#000000" stroke-opacity="1" stroke-width="1" stroke-linecap="square" stroke-linejoin="round" transform="matrix(2,0,0,2,0.0032,167)"
font-family="Ubuntu Sans" font-size="11" font-weight="400" font-style="normal" 
>
<path vector-effect="none" fill-rule="evenodd" d="M234.85,-34 C236.66,-34 238.48,-34 240.31,-34 "/>
</g>

<g fill="none" stroke="#000000" stroke-opacity="1" stroke-width="1" stroke-linecap="square" stroke-linejoin="bevel" transform="matrix(2,0,0,2,0.0032,167)"
font-family="Ubuntu Sans" font-size="11" font-weight="400" font-style="normal" 
>
</g>

<g fill="none" stroke="#000000" stroke-opacity="1" stroke-width="1" stroke-linecap="square" stroke-linejoin="bevel" transform="matrix(2,0,0,2,0.0032,167)"
font-family="Ubuntu Sans" font-size="11" font-weight="400" font-style="normal" 
>
</g>

<g fill="#000000" fill-opacity="1" stroke="#000000" stroke-opacity="1" stroke-width="1" stroke-linecap="square" stroke-linejoin="round" transform="matrix(2,0,0,2,0.0032,167)"
font-family="Ubuntu Sans" font-size="11" font-weight="400" font-style="normal" 
>
<path vector-effect="none" fill-rule="evenodd" d="M240.31,-34 L240.31,-30.3355 L250.78,-34 L240.31,-37.6645 L240.31,-34"/>
</g>

<g fill="none" stroke="#000000" stroke-opacity="1" stroke-width="1" stroke-linecap="square" stroke-linejoin="bevel" transform="matrix(2,0,0,2,0.0032,167)"
font-family="Ubuntu Sans" font-size="11" font-weight="400" font-style="normal" 
>
</g>

<g fill="none" stroke="#000000" stroke-opacity="1" stroke-width="1" stroke-linecap="square" stroke-linejoin="bevel" transform="matrix(2,0,0,2,0.0032,167)"
font-family="Ubuntu Sans" font-size="11" font-weight="400" font-style="normal" 
>
</g>

<g fill="none" stroke="#000000" stroke-opacity="1" stroke-width="1" stroke-linecap="square" stroke-linejoin="bevel" transform="matrix(2,0,0,2,0.0032,167)"
font-family="Ubuntu Sans" font-size="11" font-weight="400" font-style="normal" 
>
</g>

<g fill="none" stroke="#000000" stroke-opacity="1" stroke-width="1" stroke-linecap="square" stroke-linejoin="bevel" transform="matrix(2,0,0,2,0.0032,167)"
font-family="Ubuntu Sans" font-size="11" font-weight="400" font-style="normal" 
>
</g>

<g fill="none" stroke="#000000" stroke-opacity="1" stroke-width="1" stroke-linecap="square" stroke-linejoin="round" transform="matrix(2,0,0,2,0.0032,167)"
font-family="Ubuntu Sans" font-size="11" font-weight="400" font-style="normal" 
>
<path vector-effect="none" fill-rule="evenodd" d="M86.017,-34 C87.745,-34 89.496,-34 91.263,-34 "/>
</g>

<g fill="none" stroke="#000000" stroke-opacity="1" stroke-width="1" stroke-linecap="square" stroke-linejoin="bevel" transform="matrix(2,0,0,2,0.0032,167)"
font-family="Ubuntu Sans" font-size="11" font-weight="400" font-style="normal" 
>
</g>

<g fill="none" stroke="#000000" stroke-opacity="1" stroke-width="1" stroke-linecap="square" stroke-linejoin="bevel" transform="matrix(2,0,0,2,0.0032,167)"
font-family="Ubuntu Sans" font-size="11" font-weight="400" font-style="normal" 
>
</g>

<g fill="#000000" fill-opacity="1" stroke="#000000" stroke-opacity="1" stroke-width="1" stroke-linecap="square" stroke-linejoin="round" transform="matrix(2,0,0,2,0.0032,167)"
font-family="Ubuntu Sans" font-size="11" font-weight="400" font-style="normal" 
>
<path vector-effect="none" fill-rule="evenodd" d="M91.263,-34 L91.263,-30.4101 L101.52,-34 L91.263,-37.5899 L91.263,-34"/>
</g>

<g fill="none" stroke="#000000" stroke-opacity="1" stroke-width="1" stroke-linecap="square" stroke-linejoin="bevel" transform="matrix(2,0,0,2,0.0032,167)"
font-family="Ubuntu Sans" font-size="11" font-weight="400" font-style="normal" 
>
</g>

<g fill="none" stroke="#000000" stroke-opacity="1" stroke-width="1" stroke-linecap="square" stroke-linejoin="bevel" transform="matrix(1,0,0,1,0,0)"
font-family="Ubuntu Sans" font-size="11" font-weight="400" font-style="normal" 
>
</g>
</g>
</svg>
